<?xml version="1.0" standalone="no"?>
<!DOCTYPE svg PUBLIC "-//W3C//DTD SVG 20010904//EN"
 "http://www.w3.org/TR/2001/REC-SVG-20010904/DTD/svg10.dtd">
<svg version="1.0" xmlns="http://www.w3.org/2000/svg"
 width="500.000000pt" height="500.000000pt" viewBox="0 0 500.000000 500.000000"
 preserveAspectRatio="xMidYMid meet">

<g transform="translate(0.000000,500.000000) scale(0.100000,-0.100000)"
fill="#000000" stroke="none">
<path d="M0 2500 l0 -2500 2500 0 2500 0 0 2500 0 2500 -2500 0 -2500 0 0
-2500z m2303 843 c189 -56 307 -215 307 -414 l0 -38 58 27 c51 24 68 27 167
27 61 0 145 -4 188 -9 l77 -9 0 -37 c0 -20 3 -78 6 -128 6 -81 5 -92 -10 -92
-11 0 -16 9 -16 27 0 81 -81 161 -186 183 -154 32 -299 -71 -306 -218 l-3 -52
-118 0 -119 0 25 30 c62 73 93 244 67 372 -32 163 -123 253 -284 280 -53 9
-87 8 -178 -6 -62 -10 -123 -20 -135 -23 l-23 -5 0 -324 0 -324 -70 0 -70 0 0
284 c0 157 -4 296 -10 310 -14 37 -54 59 -106 58 -51 0 -57 21 -8 26 16 2 103
15 194 29 307 48 345 52 423 47 43 -3 102 -12 130 -21z m-352 -698 c16 -33 15
-35 -2 -35 -20 0 -24 4 -33 43 -9 40 15 34 35 -8z m-550 -95 c27 -15 24 -39
-6 -50 -14 -5 -25 -16 -25 -25 0 -8 -4 -15 -10 -15 -5 0 -10 23 -10 50 0 53
10 61 51 40z m214 -88 c-2 -2 -12 3 -24 10 -17 10 -25 10 -41 0 -11 -7 -20 -8
-20 -3 0 13 27 75 37 84 7 8 55 -83 48 -91z m131 41 c3 -15 12 -23 24 -23 17
0 20 7 20 41 0 24 4 38 10 34 15 -9 12 -71 -4 -85 -8 -6 -25 -10 -38 -8 -20 3
-23 9 -25 53 -1 47 0 45 13 -12z m204 11 c0 -27 4 -34 20 -34 11 0 20 -4 20
-10 0 -5 -13 -10 -30 -10 -29 0 -30 1 -30 51 0 31 4 48 10 44 6 -3 10 -22 10
-41z m225 26 c12 -13 15 -27 11 -45 -8 -30 -26 -40 -61 -31 -21 5 -25 12 -25
41 0 51 42 71 75 35z m309 14 c23 -9 20 -26 -4 -19 -12 4 -20 2 -20 -5 0 -7 9
-14 21 -17 14 -4 19 -12 17 -27 -4 -26 -40 -33 -58 -11 -15 18 0 21 18 3 9 -9
15 -9 24 0 8 8 5 14 -15 21 -28 11 -37 45 -14 54 6 3 13 6 14 6 1 1 8 -2 17
-5z m197 -40 c11 -26 17 -50 13 -53 -4 -3 -9 0 -11 7 -3 6 -15 12 -28 12 -13
0 -25 -6 -28 -12 -2 -7 -7 -10 -11 -7 -6 6 31 99 40 99 3 0 14 -21 25 -46z
m209 -4 c0 -27 -4 -50 -9 -50 -5 0 -18 15 -30 33 l-21 32 0 -32 c0 -18 -4 -33
-10 -33 -5 0 -10 20 -10 45 0 52 17 59 42 18 l17 -28 1 26 c0 23 7 39 17 39 2
0 3 -22 3 -50z m190 40 c0 -5 -7 -10 -15 -10 -11 0 -15 -11 -15 -40 0 -22 -4
-40 -10 -40 -5 0 -10 18 -10 40 0 30 -4 40 -16 40 -8 0 -12 5 -9 10 3 6 22 10
41 10 19 0 34 -4 34 -10z m185 -10 c12 -13 15 -27 11 -45 -8 -30 -26 -40 -61
-31 -21 5 -25 12 -25 41 0 51 42 71 75 35z m186 4 c11 -13 9 -14 -14 -9 -34 9
-35 -8 -1 -24 16 -7 24 -18 22 -29 -4 -20 -45 -29 -61 -13 -15 15 0 26 16 13
8 -7 17 -9 21 -5 3 4 -6 17 -21 30 -27 22 -28 23 -9 38 25 19 30 19 47 -1z
m-1631 -364 c0 -218 4 -238 56 -279 15 -12 44 -24 66 -27 92 -15 21 -24 -192
-24 -147 0 -230 4 -230 10 0 6 11 10 25 10 33 0 73 21 105 55 25 26 25 28 28
241 l3 214 70 0 69 0 0 -200z m1116 66 c93 -74 194 -160 223 -191 124 -137
171 -325 121 -487 -66 -213 -270 -340 -525 -325 -137 8 -228 44 -317 126 -66
60 -104 133 -125 238 -14 74 -14 86 1 156 9 41 28 97 42 124 27 56 89 131 98
122 4 -4 -9 -35 -28 -70 -19 -35 -41 -88 -50 -118 -21 -72 -20 -193 2 -253 55
-152 201 -248 376 -248 242 0 406 164 394 394 -4 85 -45 180 -104 246 -22 24
-141 124 -266 222 -125 99 -230 184 -233 189 -4 5 41 9 107 9 l113 0 171 -134z"/>
<path d="M1370 2525 c0 -8 7 -15 15 -15 8 0 15 7 15 15 0 8 -7 15 -15 15 -8 0
-15 -7 -15 -15z"/>
<path d="M1560 2510 c0 -5 5 -10 10 -10 6 0 10 5 10 10 0 6 -4 10 -10 10 -5 0
-10 -4 -10 -10z"/>
<path d="M2121 2523 c-12 -24 1 -46 25 -41 13 2 19 12 19 28 0 30 -30 39 -44
13z"/>
<path d="M2650 2515 c0 -8 4 -15 10 -15 5 0 7 7 4 15 -4 8 -8 15 -10 15 -2 0
-4 -7 -4 -15z"/>
<path d="M3211 2523 c-12 -24 1 -46 25 -41 13 2 19 12 19 28 0 30 -30 39 -44
13z"/>
</g>
</svg>
